Coordinates
version=1
nRows=22
nColumns=32
inDegrees=yes

Units are S.I. units (second, meters, Newtons, ...)
If the header above contains a line with 'inDegrees', this indicates whether rotational values are in degrees (yes) or radians (no).

endheader
time	pelvis_tilt	pelvis_list	pelvis_rotation	pelvis_tx	pelvis_ty	pelvis_tz	hip_flexion_r	hip_adduction_r	hip_rotation_r	knee_angle_r	knee_adduction_r	med_cond_adduction_r	lat_cond_adduction_r	patella_r_constrained_knee_angle	ankle_angle_r	subtalar_angle_r	mtp_angle_r	hip_flexion_l	hip_adduction_l	hip_rotation_l	knee_angle_l	knee_adduction_l	med_cond_adduction_l	lat_cond_adduction_l	patella_l_constrained_knee_angle	ankle_angle_l	subtalar_angle_l	mtp_angle_l	lumbar_extension	lumbar_bending	lumbar_rotation
      1.51000000	     -4.73908233	     -3.19882383	     -1.13119265	      0.18694069	      0.43697649	     -1.21294133	     97.20550355	    -47.61362061	      5.10796961	   -126.66933678	     -9.82234093	     -0.00000000	     -0.00000000	     -2.21079699	     29.58012610	     16.45208031	      0.00000000	    110.00132467	    -49.23537600	     17.05340147	   -127.44532809	     -9.79578313	      0.00000000	      0.00000000	     -2.22434059	     28.38913817	     19.48568332	      0.00000000	    -33.87735411	      3.67011662	     -1.57028148
      1.51500000	     -4.64216085	     -3.20697504	     -1.11839354	      0.18696337	      0.43617335	     -1.21306476	     97.28680686	    -47.64435247	      5.25161556	   -126.79122169	     -9.82392722	      0.00000000	      0.00000000	     -2.21292428	     29.58159182	     16.47444219	      0.00000000	    110.09700637	    -49.21136117	     17.19517523	   -127.58351622	     -9.79695424	     -0.00000000	     -0.00000000	     -2.22675243	     28.40009913	     19.48487715	     -0.00000000	    -34.01474486	      3.70094699	     -1.54561658
      1.52000000	     -4.56580546	     -3.20084373	     -1.12558863	      0.18696309	      0.43534273	     -1.21310760	     97.41201867	    -47.64080914	      5.40937824	   -126.91933620	     -9.82492180	      0.00000000	      0.00000000	     -2.21516030	     29.58284915	     16.46950097	      0.00000000	    110.21063104	    -49.21104688	     17.32712236	   -127.71702792	     -9.79853891	     -0.00000000	     -0.00000000	     -2.22908265	     28.41311084	     19.48439197	      0.00000000	    -34.13256980	      3.69633243	     -1.50760253
      1.52500000	     -4.48844554	     -3.20600818	     -1.11764875	      0.18693745	      0.43453309	     -1.21321380	     97.52214738	    -47.65536745	      5.55229720	   -127.04575548	     -9.82570000	      0.00000000	      0.00000000	     -2.21736673	     29.58519993	     16.45971056	     -0.00000000	    110.32479115	    -49.18571045	     17.45273791	   -127.85712483	     -9.80022057	      0.00000000	      0.00000000	     -2.23152780	     28.43452714	     19.48457020	      0.00000000	    -34.25852077	      3.72399642	     -1.45614237
      1.53000000	     -4.40806159	     -3.17666990	     -1.14684141	      0.18693623	      0.43376174	     -1.21318473	     97.65372953	    -47.60658841	      5.73638146	   -127.16406499	     -9.82737104	     -0.00000000	     -0.00000000	     -2.21943162	     29.58433287	     16.42886822	      0.00000000	    110.40175363	    -49.22166270	     17.55942897	   -127.98005883	     -9.80151708	     -0.00000000	     -0.00000000	     -2.23367340	     28.44666079	     19.48278262	      0.00000000	    -34.37045730	      3.66710684	     -1.42157691
      1.53500000	     -4.33399345	     -3.19283652	     -1.14435306	      0.18693193	      0.43298990	     -1.21326361	     97.73943199	    -47.61391667	      5.84622476	   -127.28366130	     -9.82819635	     -0.00000000	     -0.00000000	     -2.22151897	     29.58558186	     16.40829690	     -0.00000000	    110.52663409	    -49.20236003	     17.70952288	   -128.10315608	     -9.80345301	     -0.00000000	     -0.00000000	     -2.23582186	     28.46174387	     19.48252725	      0.00000000	    -34.48690283	      3.68752361	     -1.39594446
      1.54000000	     -4.30225666	     -2.73956884	     -1.07230262	      0.18685765	      0.43210083	     -1.21304006	     98.58641281	    -47.61695564	      6.84508916	   -127.45375878	     -9.82834456	      0.00000000	      0.00000000	     -2.22448773	     29.58014597	     16.45475777	     -0.00000000	    109.96876335	    -49.24030850	     16.98751148	   -128.20010157	     -9.80414064	     -0.00000000	     -0.00000000	     -2.23751387	     28.55661434	     19.47537620	      0.00000000	    -34.52763729	      3.16441877	     -1.62819450
      1.54500000	     -4.17474890	     -3.17695698	     -1.15643808	      0.18690847	      0.43153317	     -1.21334003	     97.94134126	    -47.59021667	      6.13974811	   -127.51723841	     -9.82998939	     -0.00000000	     -0.00000000	     -2.22559566	     29.58817848	     16.37892629	      0.00000000	    110.69283202	    -49.20419823	     17.93031602	   -128.34183603	     -9.80672423	      0.00000000	      0.00000000	     -2.23998761	     28.48820551	     19.47992310	      0.00000000	    -34.72626252	      3.66831116	     -1.32345611
      1.55000000	     -4.13068849	     -2.92345530	     -1.11238336	      0.18693314	      0.43067201	     -1.21325077	     98.47600261	    -47.62371817	      6.77704194	   -127.66458227	     -9.82967102	      0.00000000	      0.00000000	     -2.22816730	     29.58782178	     16.51505578	     -0.00000000	    110.44872199	    -49.21754523	     17.59537694	   -128.45658202	     -9.80716387	      0.00000000	      0.00000000	     -2.24199030	     28.50829855	     19.47446208	      0.00000000	    -34.77718486	      3.34644145	     -1.49588694
      1.55500000	     -4.04527933	     -2.90662067	     -1.09893714	      0.18690365	      0.43002542	     -1.21330142	     98.57149858	    -47.61473178	      6.93789357	   -127.76942962	     -9.83081409	      0.00000000	      0.00000000	     -2.22999723	     29.58463110	     16.49048748	     -0.00000000	    110.48632112	    -49.21180661	     17.65966858	   -128.55924129	     -9.80880615	      0.00000000	      0.00000000	     -2.24378204	     28.52080615	     19.47719372	      0.00000000	    -34.89977485	      3.28952589	     -1.57391853
      1.56000000	     -3.97856893	     -2.96723285	     -1.12640460	      0.18688185	      0.42932323	     -1.21335509	     98.56961576	    -47.57451071	      6.94228291	   -127.87332114	     -9.83211055	     -0.00000000	     -0.00000000	     -2.23181048	     29.58728702	     16.43645105	      0.00000000	    110.68255651	    -49.20785684	     17.89925307	   -128.67449253	     -9.81016176	     -0.00000000	      0.00000000	     -2.24579356	     28.53145082	     19.47534612	      0.00000000	    -34.99993964	      3.31074695	     -1.54627442
      1.56500000	     -3.88022838	     -3.13662795	     -1.13697179	      0.18692801	      0.42870542	     -1.21354917	     98.37429441	    -47.59945066	      6.75125877	   -127.96215820	     -9.83300952	      0.00000000	      0.00000000	     -2.23336098	     29.59005661	     16.38202906	     -0.00000000	    110.99265391	    -49.16378720	     18.31491003	   -128.79764387	     -9.81076329	      0.00000000	      0.00000000	     -2.24794295	     28.53338828	     19.47919494	      0.00000000	    -35.14074222	      3.45870534	     -1.53148315
      1.57000000	     -3.82794118	     -3.16062649	     -1.11578651	      0.18693191	      0.42795240	     -1.21368267	     98.46952310	    -47.61561701	      6.83063631	   -128.07340377	     -9.83487564	     -0.00000000	     -0.00000000	     -2.23530258	     29.58557746	     16.15222177	     -0.00000000	    111.13191296	    -49.11609708	     18.46422693	   -128.91772587	     -9.81103976	     -0.00000000	     -0.00000000	     -2.25003878	     28.55696230	     19.49147036	      0.00000000	    -35.21431403	      3.35177002	     -1.76658888
      1.57500000	     -3.72132641	     -3.11809395	     -1.15464363	      0.18688944	      0.42743293	     -1.21357739	     98.54324307	    -47.55579269	      7.00919834	   -128.17718765	     -9.83432596	     -0.00000000	     -0.00000000	     -2.23711395	     29.59174823	     16.31087804	      0.00000000	    111.11457846	    -49.17296701	     18.51820159	   -128.99909962	     -9.81266639	      0.00000000	     -0.00000000	     -2.25145902	     28.56940812	     19.48096431	      0.00000000	    -35.36322226	      3.35337886	     -1.57108538
      1.58000000	     -3.66433799	     -3.14681902	     -1.16516162	      0.18690332	      0.42679016	     -1.21361142	     98.58369945	    -47.54302472	      7.05727721	   -128.27851037	     -9.83614450	     -0.00000000	      0.00000000	     -2.23888237	     29.59267131	     16.29769225	      0.00000000	    111.25649108	    -49.16294411	     18.68538097	   -129.09873463	     -9.81395481	      0.00000000	      0.00000000	     -2.25319798	     28.57038102	     19.47896091	     -0.00000000	    -35.44505091	      3.32336714	     -1.62437239
      1.58500000	     -3.55209689	     -3.06982782	     -1.17702007	      0.18685388	      0.42623864	     -1.21355093	     98.72562815	    -47.49177842	      7.28542224	   -128.39725359	     -9.84024204	     -0.00000000	     -0.00000000	     -2.24095483	     29.58674974	     16.07976037	      0.00000000	    111.17600510	    -49.19822141	     18.67449543	   -129.19699624	     -9.81412861	      0.00000000	      0.00000000	     -2.25491297	     28.60390505	     19.48632319	      0.00000000	    -35.59095617	      3.13834948	     -1.74196512
      1.59000000	     -3.54449294	     -2.98616700	     -1.14776883	      0.18689552	      0.42546163	     -1.21359296	     99.00615290	    -47.51776353	      7.61116446	   -128.48427926	     -9.83690655	     -0.00000000	     -0.00000000	     -2.24247371	     29.59238870	     16.34738842	      0.00000000	    111.21030252	    -49.17878355	     18.61234560	   -129.30483636	     -9.81524807	     -0.00000000	     -0.00000000	     -2.25679513	     28.59286747	     19.47662164	     -0.00000000	    -35.61437668	      3.17151544	     -1.60102692
      1.59500000	     -3.42622282	     -3.07917601	     -1.14808503	      0.18694297	      0.42498333	     -1.21368722	     98.87389211	    -47.54802771	      7.53521326	   -128.57616565	     -9.83799006	      0.00000000	     -0.00000000	     -2.24407743	     29.59382076	     16.28018654	     -0.00000000	    111.35798263	    -49.15479330	     18.87600173	   -129.40284435	     -9.81636700	      0.00000000	      0.00000000	     -2.25850570	     28.59697277	     19.48007590	      0.00000000	    -35.75190146	      3.42458722	     -1.27531788
      1.60000000	     -3.35954808	     -2.98828783	     -1.12344781	      0.18697435	      0.42433388	     -1.21367044	     99.09382112	    -47.55873824	      7.82528923	   -128.68540642	     -9.83897320	      0.00000000	      0.00000000	     -2.24598404	     29.59424980	     16.28646413	     -0.00000000	    111.30298158	    -49.15441557	     18.81570208	   -129.49191263	     -9.81722405	     -0.00000000	     -0.00000000	     -2.26006023	     28.60132777	     19.47801986	      0.00000000	    -35.82671025	      3.24328087	     -1.44982307
      1.60500000	     -3.28856817	     -2.87878197	     -1.11411531	      0.18693698	      0.42373401	     -1.21360110	     99.32291277	    -47.53323206	      8.13148233	   -128.79078525	     -9.83912460	     -0.00000000	     -0.00000000	     -2.24782325	     29.59527029	     16.30403505	      0.00000000	    111.20871817	    -49.17247162	     18.72899009	   -129.57839858	     -9.81812206	     -0.00000000	     -0.00000000	     -2.26156969	     28.62775067	     19.47665835	     -0.00000000	    -35.90997145	      3.04575220	     -1.58639168
      1.61000000	     -3.20308446	     -2.87932729	     -1.14639631	      0.18697471	      0.42318075	     -1.21353798	     99.36675744	    -47.49162012	      8.20220603	   -128.89845151	     -9.84140311	      0.00000000	      0.00000000	     -2.24970238	     29.59174011	     16.15642424	      0.00000000	    111.27681008	    -49.20581585	     18.86798678	   -129.66594927	     -9.81893233	      0.00000000	      0.00000000	     -2.26309774	     28.65754257	     19.47536250	     -0.00000000	    -36.01135748	      2.90803901	     -1.69574372
      1.61500000	     -3.09701949	     -3.10352009	     -1.15615578	      0.18702033	      0.42271155	     -1.21375949	     99.04623967	    -47.53004890	      7.89938436	   -128.96000203	     -9.84180743	      0.00000000	      0.00000000	     -2.25077664	     29.59784477	     16.18177258	     -0.00000000	    111.63805453	    -49.14296366	     19.35613554	   -129.77533296	     -9.82018804	     -0.00000000	     -0.00000000	     -2.26500685	     28.62283591	     19.48068873	     -0.00000000	    -36.16234962	      3.45507841	     -1.10446881
